<svg width="160" height="37" viewBox="0 0 160 37" fill="none" xmlns="http://www.w3.org/2000/svg">
<path d="M0.943498 24.292C0.319498 23.524 0.00749818 22.84 0.00749818 22.24C0.00749818 21.616 0.523498 20.8 1.5555 19.792C2.1555 19.216 2.7915 18.928 3.4635 18.928C4.1355 18.928 5.0715 19.528 6.2715 20.728C6.6075 21.136 7.0875 21.532 7.7115 21.916C8.3355 22.276 8.9115 22.456 9.4395 22.456C11.6715 22.456 12.7875 21.544 12.7875 19.72C12.7875 19.168 12.4755 18.712 11.8515 18.352C11.2515 17.968 10.4955 17.692 9.5835 17.524C8.6715 17.356 7.6875 17.092 6.6315 16.732C5.5755 16.348 4.5915 15.904 3.6795 15.4C2.7675 14.896 1.9995 14.104 1.3755 13.024C0.775498 11.92 0.475498 10.6 0.475498 9.064C0.475498 6.952 1.2555 5.116 2.8155 3.556C4.3995 1.972 6.5475 1.18 9.2595 1.18C10.6995 1.18 12.0075 1.372 13.1835 1.756C14.3835 2.116 15.2115 2.488 15.6675 2.872L16.5675 3.556C17.3115 4.252 17.6835 4.84 17.6835 5.32C17.6835 5.8 17.3955 6.46 16.8195 7.3C16.0035 8.5 15.1635 9.1 14.2995 9.1C13.7955 9.1 13.1715 8.86 12.4275 8.38C12.3555 8.332 12.2115 8.212 11.9955 8.02C11.8035 7.828 11.6235 7.672 11.4555 7.552C10.9515 7.24 10.3035 7.084 9.5115 7.084C8.7435 7.084 8.0955 7.276 7.5675 7.66C7.0635 8.02 6.8115 8.536 6.8115 9.208C6.8115 9.856 7.1115 10.384 7.7115 10.792C8.3355 11.2 9.1035 11.476 10.0155 11.62C10.9275 11.764 11.9235 11.992 13.0035 12.304C14.0835 12.592 15.0795 12.952 15.9915 13.384C16.9035 13.816 17.6595 14.572 18.2595 15.652C18.8835 16.708 19.1955 18.016 19.1955 19.576C19.1955 21.136 18.8835 22.516 18.2595 23.716C17.6355 24.892 16.8195 25.804 15.8115 26.452C13.8675 27.724 11.7915 28.36 9.5835 28.36C8.4555 28.36 7.3875 28.228 6.3795 27.964C5.3715 27.676 4.5555 27.328 3.9315 26.92C2.6595 26.152 1.7715 25.408 1.2675 24.688L0.943498 24.292ZM24.4158 12.196C24.4158 11.644 24.4278 11.236 24.4518 10.972C24.4998 10.684 24.6078 10.36 24.7758 10C25.1118 9.376 26.0478 9.064 27.5838 9.064C28.7358 9.064 29.5518 9.268 30.0318 9.676C30.4398 10.012 30.6558 10.528 30.6798 11.224C30.7038 11.464 30.7158 11.812 30.7158 12.268V24.868C30.7158 25.42 30.6918 25.84 30.6438 26.128C30.6198 26.392 30.5118 26.704 30.3198 27.064C30.0078 27.688 29.0838 28 27.5478 28C26.0358 28 25.1118 27.676 24.7758 27.028C24.6078 26.668 24.4998 26.356 24.4518 26.092C24.4278 25.828 24.4158 25.408 24.4158 24.832V12.196ZM30.3198 5.536C30.1518 5.872 29.8398 6.112 29.3838 6.256C28.9278 6.4 28.3158 6.472 27.5478 6.472C26.8038 6.472 26.2038 6.4 25.7478 6.256C25.2918 6.112 24.9678 5.86 24.7758 5.5C24.6078 5.14 24.4998 4.828 24.4518 4.564C24.4278 4.276 24.4158 3.856 24.4158 3.304C24.4158 2.752 24.4278 2.344 24.4518 2.08C24.4998 1.792 24.6078 1.48 24.7758 1.144C25.1118 0.495998 26.0478 0.171998 27.5838 0.171998C29.0958 0.171998 30.0078 0.495998 30.3198 1.144C30.5118 1.504 30.6198 1.828 30.6438 2.116C30.6918 2.38 30.7158 2.788 30.7158 3.34C30.7158 3.892 30.6918 4.312 30.6438 4.6C30.6198 4.864 30.5118 5.176 30.3198 5.536ZM42.6636 11.548C43.7916 9.844 45.1476 8.992 46.7316 8.992C49.1796 8.992 51.0036 10.036 52.2036 12.124C52.4676 11.764 52.7796 11.392 53.1396 11.008C53.5236 10.6 54.1236 10.168 54.9396 9.712C55.7556 9.232 56.5956 8.992 57.4596 8.992C59.3796 8.992 60.9876 9.736 62.2836 11.224C63.5796 12.688 64.2276 15.124 64.2276 18.532V24.832C64.2276 25.384 64.2036 25.804 64.1556 26.092C64.1316 26.356 64.0236 26.668 63.8316 27.028C63.5196 27.676 62.5956 28 61.0596 28C59.5476 28 58.6236 27.664 58.2876 26.992C58.1196 26.632 58.0116 26.32 57.9636 26.056C57.9396 25.768 57.9276 25.348 57.9276 24.796V18.496C57.9276 16.408 57.1836 15.364 55.6956 15.364C54.8556 15.364 54.2796 15.64 53.9676 16.192C53.6796 16.744 53.5356 17.524 53.5356 18.532V24.832C53.5356 25.408 53.5116 25.828 53.4636 26.092C53.4396 26.356 53.3316 26.668 53.1396 27.028C52.8036 27.676 51.8676 28 50.3316 28C48.8196 28 47.8956 27.664 47.5596 26.992C47.3916 26.632 47.2836 26.32 47.2356 26.056C47.2116 25.768 47.1996 25.348 47.1996 24.796V18.496C47.1996 16.408 46.4556 15.364 44.9676 15.364C43.5276 15.364 42.8076 16.408 42.8076 18.496V24.868C42.8076 25.42 42.7836 25.84 42.7356 26.128C42.7116 26.392 42.6036 26.704 42.4116 27.064C42.0516 27.688 41.1156 28 39.6036 28C38.0916 28 37.1676 27.676 36.8316 27.028C36.6636 26.668 36.5556 26.356 36.5076 26.092C36.4836 25.828 36.4716 25.408 36.4716 24.832V12.16C36.4716 11.608 36.4836 11.2 36.5076 10.936C36.5556 10.648 36.6756 10.336 36.8676 10C37.2276 9.352 38.0796 9.028 39.4236 9.028C40.7676 9.028 41.6436 9.244 42.0516 9.676C42.4596 10.108 42.6636 10.732 42.6636 11.548ZM69.9727 33.148V12.124C69.9727 11.572 69.9847 11.164 70.0087 10.9C70.0567 10.636 70.1647 10.336 70.3327 10C70.6687 9.352 71.4727 9.028 72.7447 9.028C74.0167 9.028 74.8687 9.196 75.3007 9.532C75.7567 9.844 76.0207 10.312 76.0927 10.936C77.0047 9.688 78.4327 9.064 80.3767 9.064C82.3447 9.064 84.2047 9.988 85.9567 11.836C87.7087 13.684 88.5847 15.832 88.5847 18.28C88.5847 20.728 87.7087 22.876 85.9567 24.724C84.2287 26.572 82.3807 27.496 80.4127 27.496C78.4447 27.496 77.0167 26.944 76.1287 25.84V33.112C76.1287 33.664 76.1047 34.072 76.0567 34.336C76.0327 34.6 75.9247 34.9 75.7327 35.236C75.5647 35.596 75.2647 35.848 74.8327 35.992C74.4007 36.136 73.8127 36.208 73.0687 36.208C72.3247 36.208 71.7247 36.136 71.2687 35.992C70.8367 35.848 70.5247 35.608 70.3327 35.272C70.1647 34.936 70.0567 34.636 70.0087 34.372C69.9847 34.108 69.9727 33.7 69.9727 33.148ZM77.1007 16.192C76.5487 16.84 76.2727 17.548 76.2727 18.316C76.2727 19.084 76.5487 19.792 77.1007 20.44C77.6767 21.064 78.3967 21.376 79.2607 21.376C80.1487 21.376 80.8927 21.064 81.4927 20.44C82.1167 19.816 82.4287 19.108 82.4287 18.316C82.4287 17.524 82.1407 16.816 81.5647 16.192C80.9887 15.544 80.2327 15.22 79.2967 15.22C78.3847 15.22 77.6527 15.544 77.1007 16.192ZM93.8058 3.268C93.8058 2.716 93.8178 2.308 93.8418 2.044C93.8898 1.756 93.9978 1.432 94.1658 1.072C94.5018 0.423999 95.4378 0.0999987 96.9738 0.0999987C98.4378 0.0999987 99.3498 0.423999 99.7098 1.072C99.9018 1.432 100.01 1.756 100.034 2.044C100.082 2.332 100.106 2.752 100.106 3.304V19.972C100.106 20.836 100.178 21.388 100.322 21.628C100.466 21.844 100.778 21.952 101.258 21.952C101.762 21.952 102.098 21.976 102.266 22.024C102.434 22.048 102.638 22.144 102.878 22.312C103.358 22.624 103.598 23.476 103.598 24.868C103.598 26.38 103.358 27.304 102.878 27.64C102.254 28.072 100.766 28.144 98.4138 27.856C96.5658 27.616 95.3658 27.004 94.8138 26.02C94.1418 24.844 93.8058 22.972 93.8058 20.404V3.268ZM108.463 12.196C108.463 11.644 108.475 11.236 108.499 10.972C108.547 10.684 108.655 10.36 108.823 10C109.159 9.376 110.095 9.064 111.631 9.064C112.783 9.064 113.599 9.268 114.079 9.676C114.487 10.012 114.703 10.528 114.727 11.224C114.751 11.464 114.763 11.812 114.763 12.268V24.868C114.763 25.42 114.739 25.84 114.691 26.128C114.667 26.392 114.559 26.704 114.367 27.064C114.055 27.688 113.131 28 111.595 28C110.083 28 109.159 27.676 108.823 27.028C108.655 26.668 108.547 26.356 108.499 26.092C108.475 25.828 108.463 25.408 108.463 24.832V12.196ZM114.367 5.536C114.199 5.872 113.887 6.112 113.431 6.256C112.975 6.4 112.363 6.472 111.595 6.472C110.851 6.472 110.251 6.4 109.795 6.256C109.339 6.112 109.015 5.86 108.823 5.5C108.655 5.14 108.547 4.828 108.499 4.564C108.475 4.276 108.463 3.856 108.463 3.304C108.463 2.752 108.475 2.344 108.499 2.08C108.547 1.792 108.655 1.48 108.823 1.144C109.159 0.495998 110.095 0.171998 111.631 0.171998C113.143 0.171998 114.055 0.495998 114.367 1.144C114.559 1.504 114.667 1.828 114.691 2.116C114.739 2.38 114.763 2.788 114.763 3.34C114.763 3.892 114.739 4.312 114.691 4.6C114.667 4.864 114.559 5.176 114.367 5.536ZM131.607 9.064C133.263 9.064 134.235 9.52 134.523 10.432C134.667 10.888 134.739 11.488 134.739 12.232C134.739 12.976 134.655 13.576 134.487 14.032C134.343 14.464 134.103 14.776 133.767 14.968C133.263 15.256 132.531 15.4 131.571 15.4L129.267 15.256V24.904C129.267 25.816 129.147 26.5 128.907 26.956C128.691 27.388 128.343 27.676 127.863 27.82C127.407 27.964 126.807 28.036 126.063 28.036C125.319 28.036 124.719 27.964 124.263 27.82C123.831 27.652 123.519 27.4 123.327 27.064C123.135 26.704 123.015 26.38 122.967 26.092C122.943 25.804 122.931 25.384 122.931 24.832V15.292H121.635C121.011 15.244 120.567 15.1 120.303 14.86C119.847 14.404 119.619 13.528 119.619 12.232C119.619 10.264 120.327 9.28 121.743 9.28H122.931V7.372C122.931 5.524 123.591 3.856 124.911 2.368C126.231 0.855999 128.139 0.0999987 130.635 0.0999987C131.187 0.0999987 131.595 0.123998 131.859 0.171998C132.147 0.195999 132.471 0.303999 132.831 0.495998C133.479 0.807998 133.803 1.732 133.803 3.268C133.803 4.42 133.599 5.248 133.191 5.752C132.855 6.136 132.327 6.352 131.607 6.4C131.391 6.4 131.055 6.4 130.599 6.4C129.711 6.4 129.267 6.7 129.267 7.3V9.28L131.607 9.064ZM157.246 9.244C158.662 9.868 159.37 10.624 159.37 11.512C159.37 11.944 159.274 12.352 159.082 12.736C158.89 13.12 158.794 13.324 158.794 13.348L149.362 34.444C149.17 34.9 149.002 35.248 148.858 35.488C148.738 35.728 148.534 35.956 148.246 36.172C147.958 36.388 147.598 36.496 147.166 36.496C146.734 36.496 146.098 36.316 145.258 35.956C143.842 35.332 143.134 34.588 143.134 33.724C143.134 33.148 144.286 30.4 146.59 25.48L139.426 13.42C138.946 12.628 138.706 12.04 138.706 11.656C138.706 10.888 139.354 10.12 140.65 9.352C141.466 8.872 142.102 8.632 142.558 8.632C143.014 8.632 143.386 8.728 143.674 8.92C143.962 9.112 144.166 9.316 144.286 9.532C144.43 9.724 145.09 10.84 146.266 12.88C147.466 14.896 148.606 16.78 149.686 18.532C149.806 18.148 150.454 16.672 151.63 14.104C152.806 11.512 153.43 10.132 153.502 9.964C153.598 9.796 153.742 9.592 153.934 9.352C154.246 8.944 154.678 8.74 155.23 8.74C155.806 8.74 156.478 8.908 157.246 9.244Z" fill="#2196F3"/>
</svg>
